solid ascii
  facet normal -9.989009e-001 -4.687226e-002 1.311210e-017
    outer loop
      vertex   1.744899e+000 1.641161e-001 2.778125e+000
      vertex   1.744899e+000 1.641161e-001 0.000000e+000
      vertex   1.752600e+000 2.146316e-016 2.778125e+000
    endloop
  endfacet
  facet normal -9.901225e-001 -1.402049e-001 3.895593e-017
    outer loop
      vertex   1.744899e+000 1.641161e-001 2.778125e+000
      vertex   1.721864e+000 3.267899e-001 0.000000e+000
      vertex   1.744899e+000 1.641161e-001 0.000000e+000
    endloop
  endfacet
  facet normal -9.901225e-001 -1.402049e-001 3.991551e-017
    outer loop
      vertex   1.744899e+000 1.641161e-001 2.778125e+000
      vertex   1.721864e+000 3.267899e-001 2.778125e+000
      vertex   1.721864e+000 3.267899e-001 0.000000e+000
    endloop
  endfacet
  facet normal -9.726429e-001 -2.323054e-001 1.275413e-017
    outer loop
      vertex   1.721864e+000 3.267899e-001 0.000000e+000
      vertex   1.721864e+000 3.267899e-001 2.778125e+000
      vertex   1.683697e+000 4.865919e-001 0.000000e+000
    endloop
  endfacet
  facet normal -9.726429e-001 -2.323054e-001 0.000000e+000
    outer loop
      vertex   1.683697e+000 4.865919e-001 0.000000e+000
      vertex   1.721864e+000 3.267899e-001 2.778125e+000
      vertex   1.683697e+000 4.865919e-001 2.778125e+000
    endloop
  endfacet
  facet normal -9.466157e-001 -3.223643e-001 0.000000e+000
    outer loop
      vertex   1.630733e+000 6.421177e-001 0.000000e+000
      vertex   1.683697e+000 4.865919e-001 2.778125e+000
      vertex   1.630733e+000 6.421177e-001 2.778125e+000
    endloop
  endfacet
  facet normal -9.122696e-001 -4.095904e-001 4.560695e-017
    outer loop
      vertex   1.563439e+000 7.920005e-001 0.000000e+000
      vertex   1.630733e+000 6.421177e-001 2.778125e+000
      vertex   1.563439e+000 7.920005e-001 2.778125e+000
    endloop
  endfacet
  facet normal -8.699064e-001 -4.932169e-001 0.000000e+000
    outer loop
      vertex   1.482405e+000 9.349232e-001 0.000000e+000
      vertex   1.563439e+000 7.920005e-001 2.778125e+000
      vertex   1.482405e+000 9.349232e-001 2.778125e+000
    endloop
  endfacet
  facet normal -8.198984e-001 -5.725090e-001 0.000000e+000
    outer loop
      vertex   1.388344e+000 1.069630e+000 0.000000e+000
      vertex   1.482405e+000 9.349232e-001 2.778125e+000
      vertex   1.388344e+000 1.069630e+000 2.778125e+000
    endloop
  endfacet
  facet normal -7.626852e-001 -6.467699e-001 0.000000e+000
    outer loop
      vertex   1.282082e+000 1.194936e+000 0.000000e+000
      vertex   1.388344e+000 1.069630e+000 2.778125e+000
      vertex   1.282082e+000 1.194936e+000 2.778125e+000
    endloop
  endfacet
  facet normal -6.987694e-001 -7.153470e-001 1.064162e-016
    outer loop
      vertex   1.164553e+000 1.309742e+000 0.000000e+000
      vertex   1.282082e+000 1.194936e+000 2.778125e+000
      vertex   1.164553e+000 1.309742e+000 2.778125e+000
    endloop
  endfacet
  facet normal -6.287129e-001 -7.776375e-001 0.000000e+000
    outer loop
      vertex   1.036789e+000 1.413037e+000 0.000000e+000
      vertex   1.164553e+000 1.309742e+000 2.778125e+000
      vertex   1.036789e+000 1.413037e+000 2.778125e+000
    endloop
  endfacet
  facet normal -5.531312e-001 -8.330942e-001 0.000000e+000
    outer loop
      vertex   8.999149e-001 1.503915e+000 0.000000e+000
      vertex   1.036789e+000 1.413037e+000 2.778125e+000
      vertex   8.999149e-001 1.503915e+000 2.778125e+000
    endloop
  endfacet
  facet normal -4.726885e-001 -8.812296e-001 4.560695e-017
    outer loop
      vertex   7.551318e-001 1.581576e+000 0.000000e+000
      vertex   8.999149e-001 1.503915e+000 2.778125e+000
      vertex   7.551318e-001 1.581576e+000 2.778125e+000
    endloop
  endfacet
  facet normal -3.880919e-001 -9.216207e-001 6.080926e-017
    outer loop
      vertex   6.037126e-001 1.645338e+000 0.000000e+000
      vertex   7.551318e-001 1.581576e+000 2.778125e+000
      vertex   6.037126e-001 1.645338e+000 2.778125e+000
    endloop
  endfacet
  facet normal -3.000846e-001 -9.539126e-001 0.000000e+000
    outer loop
      vertex   4.469880e-001 1.694641e+000 0.000000e+000
      vertex   6.037126e-001 1.645338e+000 2.778125e+000
      vertex   4.469880e-001 1.694641e+000 2.778125e+000
    endloop
  endfacet
  facet normal -2.094403e-001 -9.778214e-001 -2.850434e-017
    outer loop
      vertex   2.863352e-001 1.729051e+000 0.000000e+000
      vertex   4.469880e-001 1.694641e+000 2.778125e+000
      vertex   2.863352e-001 1.729051e+000 2.778125e+000
    endloop
  endfacet
  facet normal -1.169553e-001 -9.931372e-001 3.325507e-017
    outer loop
      vertex   1.231660e-001 1.748267e+000 0.000000e+000
      vertex   2.863352e-001 1.729051e+000 2.778125e+000
      vertex   1.231660e-001 1.748267e+000 2.778125e+000
    endloop
  endfacet
  facet normal -2.344257e-002 -9.997252e-001 3.325507e-018
    outer loop
      vertex   -4.108545e-002 1.752118e+000 0.000000e+000
      vertex   1.231660e-001 1.748267e+000 2.778125e+000
      vertex   -4.108545e-002 1.752118e+000 2.778125e+000
    endloop
  endfacet
  facet normal 7.027619e-002 -9.975276e-001 0.000000e+000
    outer loop
      vertex   -2.049759e-001 1.740572e+000 0.000000e+000
      vertex   -4.108545e-002 1.752118e+000 2.778125e+000
      vertex   -2.049759e-001 1.740572e+000 2.778125e+000
    endloop
  endfacet
  facet normal 1.633774e-001 -9.865637e-001 1.900289e-017
    outer loop
      vertex   -3.670650e-001 1.713730e+000 0.000000e+000
      vertex   -2.049759e-001 1.740572e+000 2.778125e+000
      vertex   -3.670650e-001 1.713730e+000 2.778125e+000
    endloop
  endfacet
  facet normal 2.550428e-001 -9.669298e-001 1.710261e-017
    outer loop
      vertex   -5.259283e-001 1.671827e+000 0.000000e+000
      vertex   -3.670650e-001 1.713730e+000 2.778125e+000
      vertex   -5.259283e-001 1.671827e+000 2.778125e+000
    endloop
  endfacet
  facet normal 3.444669e-001 -9.387985e-001 0.000000e+000
    outer loop
      vertex   -6.801698e-001 1.615232e+000 0.000000e+000
      vertex   -5.259283e-001 1.671827e+000 2.778125e+000
      vertex   -6.801698e-001 1.615232e+000 2.778125e+000
    endloop
  endfacet
  facet normal 4.308637e-001 -9.024170e-001 0.000000e+000
    outer loop
      vertex   -8.284339e-001 1.544443e+000 0.000000e+000
      vertex   -6.801698e-001 1.615232e+000 2.778125e+000
      vertex   -8.284339e-001 1.544443e+000 2.778125e+000
    endloop
  endfacet
  facet normal 5.134742e-001 -8.581050e-001 -7.601158e-017
    outer loop
      vertex   -9.694177e-001 1.460081e+000 0.000000e+000
      vertex   -8.284339e-001 1.544443e+000 2.778125e+000
      vertex   -9.694177e-001 1.460081e+000 2.778125e+000
    endloop
  endfacet
  facet normal 5.915722e-001 -8.062520e-001 0.000000e+000
    outer loop
      vertex   -1.101882e+000 1.362888e+000 0.000000e+000
      vertex   -9.694177e-001 1.460081e+000 2.778125e+000
      vertex   -1.101882e+000 1.362888e+000 2.778125e+000
    endloop
  endfacet
  facet normal 6.644715e-001 -7.473136e-001 0.000000e+000
    outer loop
      vertex   -1.224663e+000 1.253717e+000 0.000000e+000
      vertex   -1.101882e+000 1.362888e+000 2.778125e+000
      vertex   -1.224663e+000 1.253717e+000 2.778125e+000
    endloop
  endfacet
  facet normal 7.315313e-001 -6.818078e-001 0.000000e+000
    outer loop
      vertex   -1.336682e+000 1.133529e+000 0.000000e+000
      vertex   -1.224663e+000 1.253717e+000 2.778125e+000
      vertex   -1.336682e+000 1.133529e+000 2.778125e+000
    endloop
  endfacet
  facet normal 7.921625e-001 -6.103103e-001 1.900289e-017
    outer loop
      vertex   -1.436954e+000 1.003379e+000 0.000000e+000
      vertex   -1.336682e+000 1.133529e+000 2.778125e+000
      vertex   -1.436954e+000 1.003379e+000 2.778125e+000
    endloop
  endfacet
  facet normal 8.458321e-001 -5.334493e-001 0.000000e+000
    outer loop
      vertex   -1.524598e+000 8.644119e-001 0.000000e+000
      vertex   -1.436954e+000 1.003379e+000 2.778125e+000
      vertex   -1.524598e+000 8.644119e-001 2.778125e+000
    endloop
  endfacet
  facet normal 8.920684e-001 -4.519003e-001 1.064162e-016
    outer loop
      vertex   -1.598844e+000 7.178481e-001 0.000000e+000
      vertex   -1.524598e+000 8.644119e-001 2.778125e+000
      vertex   -1.598844e+000 7.178481e-001 2.778125e+000
    endloop
  endfacet
  facet normal 9.304653e-001 -3.663800e-001 0.000000e+000
    outer loop
      vertex   -1.659039e+000 5.649757e-001 0.000000e+000
      vertex   -1.598844e+000 7.178481e-001 2.778125e+000
      vertex   -1.659039e+000 5.649757e-001 2.778125e+000
    endloop
  endfacet
  facet normal 9.606852e-001 -2.776400e-001 -8.741331e-017
    outer loop
      vertex   -1.704654e+000 4.071384e-001 0.000000e+000
      vertex   -1.659039e+000 5.649757e-001 2.778125e+000
      vertex   -1.704654e+000 4.071384e-001 2.778125e+000
    endloop
  endfacet
  facet normal 9.824625e-001 -1.864601e-001 0.000000e+000
    outer loop
      vertex   -1.735289e+000 2.457231e-001 0.000000e+000
      vertex   -1.704654e+000 4.071384e-001 2.778125e+000
      vertex   -1.735289e+000 2.457231e-001 2.778125e+000
    endloop
  endfacet
  facet normal 9.956060e-001 -9.364149e-002 0.000000e+000
    outer loop
      vertex   -1.750674e+000 8.214833e-002 0.000000e+000
      vertex   -1.735289e+000 2.457231e-001 2.778125e+000
      vertex   -1.750674e+000 8.214833e-002 2.778125e+000
    endloop
  endfacet
  facet normal 1.000000e+000 0.000000e+000 -0.000000e+000
    outer loop
      vertex   -1.750674e+000 -8.214833e-002 0.000000e+000
      vertex   -1.750674e+000 8.214833e-002 2.778125e+000
      vertex   -1.750674e+000 -8.214833e-002 2.778125e+000
    endloop
  endfacet
  facet normal 9.956060e-001 9.364149e-002 0.000000e+000
    outer loop
      vertex   -1.735289e+000 -2.457231e-001 0.000000e+000
      vertex   -1.750674e+000 -8.214833e-002 2.778125e+000
      vertex   -1.735289e+000 -2.457231e-001 2.778125e+000
    endloop
  endfacet
  facet normal 9.824625e-001 1.864601e-001 1.121171e-016
    outer loop
      vertex   -1.704654e+000 -4.071384e-001 0.000000e+000
      vertex   -1.735289e+000 -2.457231e-001 2.778125e+000
      vertex   -1.704654e+000 -4.071384e-001 2.778125e+000
    endloop
  endfacet
  facet normal 9.606852e-001 2.776400e-001 0.000000e+000
    outer loop
      vertex   -1.659039e+000 -5.649757e-001 0.000000e+000
      vertex   -1.704654e+000 -4.071384e-001 2.778125e+000
      vertex   -1.659039e+000 -5.649757e-001 2.778125e+000
    endloop
  endfacet
  facet normal 9.304653e-001 3.663800e-001 -8.741331e-017
    outer loop
      vertex   -1.598844e+000 -7.178481e-001 0.000000e+000
      vertex   -1.659039e+000 -5.649757e-001 2.778125e+000
      vertex   -1.598844e+000 -7.178481e-001 2.778125e+000
    endloop
  endfacet
  facet normal 8.920684e-001 4.519003e-001 0.000000e+000
    outer loop
      vertex   -1.524598e+000 -8.644119e-001 0.000000e+000
      vertex   -1.598844e+000 -7.178481e-001 2.778125e+000
      vertex   -1.524598e+000 -8.644119e-001 2.778125e+000
    endloop
  endfacet
  facet normal 8.458321e-001 5.334493e-001 7.601158e-018
    outer loop
      vertex   -1.436954e+000 -1.003379e+000 0.000000e+000
      vertex   -1.524598e+000 -8.644119e-001 2.778125e+000
      vertex   -1.436954e+000 -1.003379e+000 2.778125e+000
    endloop
  endfacet
  facet normal 7.921625e-001 6.103103e-001 0.000000e+000
    outer loop
      vertex   -1.336682e+000 -1.133529e+000 0.000000e+000
      vertex   -1.436954e+000 -1.003379e+000 2.778125e+000
      vertex   -1.336682e+000 -1.133529e+000 2.778125e+000
    endloop
  endfacet
  facet normal 7.315313e-001 6.818078e-001 0.000000e+000
    outer loop
      vertex   -1.224663e+000 -1.253717e+000 0.000000e+000
      vertex   -1.336682e+000 -1.133529e+000 2.778125e+000
      vertex   -1.224663e+000 -1.253717e+000 2.778125e+000
    endloop
  endfacet
  facet normal 6.644715e-001 7.473136e-001 0.000000e+000
    outer loop
      vertex   -1.101882e+000 -1.362888e+000 0.000000e+000
      vertex   -1.224663e+000 -1.253717e+000 2.778125e+000
      vertex   -1.101882e+000 -1.362888e+000 2.778125e+000
    endloop
  endfacet
  facet normal 5.915722e-001 8.062520e-001 1.026156e-016
    outer loop
      vertex   -9.694177e-001 -1.460081e+000 0.000000e+000
      vertex   -1.101882e+000 -1.362888e+000 2.778125e+000
      vertex   -9.694177e-001 -1.460081e+000 2.778125e+000
    endloop
  endfacet
  facet normal 5.134742e-001 8.581050e-001 0.000000e+000
    outer loop
      vertex   -8.284339e-001 -1.544443e+000 0.000000e+000
      vertex   -9.694177e-001 -1.460081e+000 2.778125e+000
      vertex   -8.284339e-001 -1.544443e+000 2.778125e+000
    endloop
  endfacet
  facet normal 4.308637e-001 9.024170e-001 0.000000e+000
    outer loop
      vertex   -6.801698e-001 -1.615232e+000 0.000000e+000
      vertex   -8.284339e-001 -1.544443e+000 2.778125e+000
      vertex   -6.801698e-001 -1.615232e+000 2.778125e+000
    endloop
  endfacet
  facet normal 3.444669e-001 9.387985e-001 7.601158e-018
    outer loop
      vertex   -5.259283e-001 -1.671827e+000 0.000000e+000
      vertex   -6.801698e-001 -1.615232e+000 2.778125e+000
      vertex   -5.259283e-001 -1.671827e+000 2.778125e+000
    endloop
  endfacet
  facet normal 2.550428e-001 9.669298e-001 -3.040463e-017
    outer loop
      vertex   -3.670650e-001 -1.713730e+000 0.000000e+000
      vertex   -5.259283e-001 -1.671827e+000 2.778125e+000
      vertex   -3.670650e-001 -1.713730e+000 2.778125e+000
    endloop
  endfacet
  facet normal 1.633774e-001 9.865637e-001 0.000000e+000
    outer loop
      vertex   -2.049759e-001 -1.740572e+000 0.000000e+000
      vertex   -3.670650e-001 -1.713730e+000 2.778125e+000
      vertex   -2.049759e-001 -1.740572e+000 2.778125e+000
    endloop
  endfacet
  facet normal 7.027619e-002 9.975276e-001 9.976520e-018
    outer loop
      vertex   -4.108545e-002 -1.752118e+000 0.000000e+000
      vertex   -2.049759e-001 -1.740572e+000 2.778125e+000
      vertex   -4.108545e-002 -1.752118e+000 2.778125e+000
    endloop
  endfacet
  facet normal -2.344257e-002 9.997252e-001 -6.413477e-018
    outer loop
      vertex   1.231660e-001 -1.748267e+000 0.000000e+000
      vertex   -4.108545e-002 -1.752118e+000 2.778125e+000
      vertex   1.231660e-001 -1.748267e+000 2.778125e+000
    endloop
  endfacet
  facet normal -1.169553e-001 9.931372e-001 1.615246e-017
    outer loop
      vertex   2.863352e-001 -1.729051e+000 0.000000e+000
      vertex   1.231660e-001 -1.748267e+000 2.778125e+000
      vertex   2.863352e-001 -1.729051e+000 2.778125e+000
    endloop
  endfacet
  facet normal -2.094403e-001 9.778214e-001 0.000000e+000
    outer loop
      vertex   4.469880e-001 -1.694641e+000 0.000000e+000
      vertex   2.863352e-001 -1.729051e+000 2.778125e+000
      vertex   4.469880e-001 -1.694641e+000 2.778125e+000
    endloop
  endfacet
  facet normal -3.000846e-001 9.539126e-001 -4.750724e-017
    outer loop
      vertex   6.037126e-001 -1.645338e+000 0.000000e+000
      vertex   4.469880e-001 -1.694641e+000 2.778125e+000
      vertex   6.037126e-001 -1.645338e+000 2.778125e+000
    endloop
  endfacet
  facet normal -3.880919e-001 9.216207e-001 -1.900289e-017
    outer loop
      vertex   7.551318e-001 -1.581576e+000 0.000000e+000
      vertex   6.037126e-001 -1.645338e+000 2.778125e+000
      vertex   7.551318e-001 -1.581576e+000 2.778125e+000
    endloop
  endfacet
  facet normal -4.726885e-001 8.812296e-001 0.000000e+000
    outer loop
      vertex   8.999149e-001 -1.503915e+000 0.000000e+000
      vertex   7.551318e-001 -1.581576e+000 2.778125e+000
      vertex   8.999149e-001 -1.503915e+000 2.778125e+000
    endloop
  endfacet
  facet normal -5.531312e-001 8.330942e-001 0.000000e+000
    outer loop
      vertex   1.036789e+000 -1.413037e+000 0.000000e+000
      vertex   8.999149e-001 -1.503915e+000 2.778125e+000
      vertex   1.036789e+000 -1.413037e+000 2.778125e+000
    endloop
  endfacet
  facet normal -6.287129e-001 7.776375e-001 -7.601158e-017
    outer loop
      vertex   1.164553e+000 -1.309742e+000 0.000000e+000
      vertex   1.036789e+000 -1.413037e+000 2.778125e+000
      vertex   1.164553e+000 -1.309742e+000 2.778125e+000
    endloop
  endfacet
  facet normal -6.987694e-001 7.153470e-001 0.000000e+000
    outer loop
      vertex   1.282082e+000 -1.194936e+000 0.000000e+000
      vertex   1.164553e+000 -1.309742e+000 2.778125e+000
      vertex   1.282082e+000 -1.194936e+000 2.778125e+000
    endloop
  endfacet
  facet normal -7.626852e-001 6.467699e-001 0.000000e+000
    outer loop
      vertex   1.388344e+000 -1.069630e+000 0.000000e+000
      vertex   1.282082e+000 -1.194936e+000 2.778125e+000
      vertex   1.388344e+000 -1.069630e+000 2.778125e+000
    endloop
  endfacet
  facet normal -8.198984e-001 5.725090e-001 0.000000e+000
    outer loop
      vertex   1.482405e+000 -9.349232e-001 0.000000e+000
      vertex   1.388344e+000 -1.069630e+000 2.778125e+000
      vertex   1.482405e+000 -9.349232e-001 2.778125e+000
    endloop
  endfacet
  facet normal -8.699064e-001 4.932169e-001 -1.900289e-017
    outer loop
      vertex   1.563439e+000 -7.920005e-001 0.000000e+000
      vertex   1.482405e+000 -9.349232e-001 2.778125e+000
      vertex   1.563439e+000 -7.920005e-001 2.778125e+000
    endloop
  endfacet
  facet normal -9.122696e-001 4.095904e-001 0.000000e+000
    outer loop
      vertex   1.630733e+000 -6.421177e-001 0.000000e+000
      vertex   1.563439e+000 -7.920005e-001 2.778125e+000
      vertex   1.630733e+000 -6.421177e-001 2.778125e+000
    endloop
  endfacet
  facet normal -9.466157e-001 3.223643e-001 0.000000e+000
    outer loop
      vertex   1.683697e+000 -4.865919e-001 0.000000e+000
      vertex   1.630733e+000 -6.421177e-001 2.778125e+000
      vertex   1.683697e+000 -4.865919e-001 2.778125e+000
    endloop
  endfacet
  facet normal -9.726429e-001 2.323054e-001 -1.140174e-017
    outer loop
      vertex   1.721864e+000 -3.267899e-001 0.000000e+000
      vertex   1.683697e+000 -4.865919e-001 2.778125e+000
      vertex   1.721864e+000 -3.267899e-001 2.778125e+000
    endloop
  endfacet
  facet normal -9.901225e-001 1.402049e-001 -3.895593e-017
    outer loop
      vertex   1.744899e+000 -1.641161e-001 0.000000e+000
      vertex   1.721864e+000 -3.267899e-001 2.778125e+000
      vertex   1.744899e+000 -1.641161e-001 2.778125e+000
    endloop
  endfacet
  facet normal -9.989009e-001 4.687226e-002 0.000000e+000
    outer loop
      vertex   1.752600e+000 2.146316e-016 0.000000e+000
      vertex   1.744899e+000 -1.641161e-001 2.778125e+000
      vertex   1.752600e+000 2.146316e-016 2.778125e+000
    endloop
  endfacet
  facet normal -9.989009e-001 -4.687226e-002 0.000000e+000
    outer loop
      vertex   1.744899e+000 1.641161e-001 0.000000e+000
      vertex   1.752600e+000 2.146316e-016 0.000000e+000
      vertex   1.752600e+000 2.146316e-016 2.778125e+000
    endloop
  endfacet
  facet normal -9.466157e-001 -3.223643e-001 0.000000e+000
    outer loop
      vertex   1.683697e+000 4.865919e-001 0.000000e+000
      vertex   1.683697e+000 4.865919e-001 2.778125e+000
      vertex   1.630733e+000 6.421177e-001 0.000000e+000
    endloop
  endfacet
  facet normal -9.122696e-001 -4.095904e-001 0.000000e+000
    outer loop
      vertex   1.630733e+000 6.421177e-001 0.000000e+000
      vertex   1.630733e+000 6.421177e-001 2.778125e+000
      vertex   1.563439e+000 7.920005e-001 0.000000e+000
    endloop
  endfacet
  facet normal -8.699064e-001 -4.932169e-001 2.079373e-017
    outer loop
      vertex   1.563439e+000 7.920005e-001 0.000000e+000
      vertex   1.563439e+000 7.920005e-001 2.778125e+000
      vertex   1.482405e+000 9.349232e-001 0.000000e+000
    endloop
  endfacet
  facet normal -8.198984e-001 -5.725090e-001 0.000000e+000
    outer loop
      vertex   1.482405e+000 9.349232e-001 0.000000e+000
      vertex   1.482405e+000 9.349232e-001 2.778125e+000
      vertex   1.388344e+000 1.069630e+000 0.000000e+000
    endloop
  endfacet
  facet normal -7.626852e-001 -6.467699e-001 0.000000e+000
    outer loop
      vertex   1.388344e+000 1.069630e+000 0.000000e+000
      vertex   1.388344e+000 1.069630e+000 2.778125e+000
      vertex   1.282082e+000 1.194936e+000 0.000000e+000
    endloop
  endfacet
  facet normal -6.987694e-001 -7.153470e-001 0.000000e+000
    outer loop
      vertex   1.282082e+000 1.194936e+000 0.000000e+000
      vertex   1.282082e+000 1.194936e+000 2.778125e+000
      vertex   1.164553e+000 1.309742e+000 0.000000e+000
    endloop
  endfacet
  facet normal -6.287129e-001 -7.776375e-001 7.669517e-017
    outer loop
      vertex   1.164553e+000 1.309742e+000 0.000000e+000
      vertex   1.164553e+000 1.309742e+000 2.778125e+000
      vertex   1.036789e+000 1.413037e+000 0.000000e+000
    endloop
  endfacet
  facet normal -5.531312e-001 -8.330942e-001 0.000000e+000
    outer loop
      vertex   1.036789e+000 1.413037e+000 0.000000e+000
      vertex   1.036789e+000 1.413037e+000 2.778125e+000
      vertex   8.999149e-001 1.503915e+000 0.000000e+000
    endloop
  endfacet
  facet normal -4.726885e-001 -8.812296e-001 0.000000e+000
    outer loop
      vertex   8.999149e-001 1.503915e+000 0.000000e+000
      vertex   8.999149e-001 1.503915e+000 2.778125e+000
      vertex   7.551318e-001 1.581576e+000 0.000000e+000
    endloop
  endfacet
  facet normal -3.880919e-001 -9.216207e-001 1.939445e-017
    outer loop
      vertex   7.551318e-001 1.581576e+000 0.000000e+000
      vertex   7.551318e-001 1.581576e+000 2.778125e+000
      vertex   6.037126e-001 1.645338e+000 0.000000e+000
    endloop
  endfacet
  facet normal -3.000846e-001 -9.539126e-001 4.796917e-017
    outer loop
      vertex   6.037126e-001 1.645338e+000 0.000000e+000
      vertex   6.037126e-001 1.645338e+000 2.778125e+000
      vertex   4.469880e-001 1.694641e+000 0.000000e+000
    endloop
  endfacet
  facet normal -2.094403e-001 -9.778214e-001 0.000000e+000
    outer loop
      vertex   4.469880e-001 1.694641e+000 0.000000e+000
      vertex   4.469880e-001 1.694641e+000 2.778125e+000
      vertex   2.863352e-001 1.729051e+000 0.000000e+000
    endloop
  endfacet
  facet normal -1.169553e-001 -9.931372e-001 -1.635861e-017
    outer loop
      vertex   2.863352e-001 1.729051e+000 0.000000e+000
      vertex   2.863352e-001 1.729051e+000 2.778125e+000
      vertex   1.231660e-001 1.748267e+000 0.000000e+000
    endloop
  endfacet
  facet normal -2.344257e-002 -9.997252e-001 6.557854e-018
    outer loop
      vertex   1.231660e-001 1.748267e+000 0.000000e+000
      vertex   1.231660e-001 1.748267e+000 2.778125e+000
      vertex   -4.108545e-002 1.752118e+000 0.000000e+000
    endloop
  endfacet
  facet normal 7.027619e-002 -9.975276e-001 -9.654046e-018
    outer loop
      vertex   -4.108545e-002 1.752118e+000 0.000000e+000
      vertex   -4.108545e-002 1.752118e+000 2.778125e+000
      vertex   -2.049759e-001 1.740572e+000 0.000000e+000
    endloop
  endfacet
  facet normal 1.633774e-001 -9.865637e-001 0.000000e+000
    outer loop
      vertex   -2.049759e-001 1.740572e+000 0.000000e+000
      vertex   -2.049759e-001 1.740572e+000 2.778125e+000
      vertex   -3.670650e-001 1.713730e+000 0.000000e+000
    endloop
  endfacet
  facet normal 2.550428e-001 -9.669298e-001 3.057685e-017
    outer loop
      vertex   -3.670650e-001 1.713730e+000 0.000000e+000
      vertex   -3.670650e-001 1.713730e+000 2.778125e+000
      vertex   -5.259283e-001 1.671827e+000 0.000000e+000
    endloop
  endfacet
  facet normal 3.444669e-001 -9.387985e-001 -7.561171e-018
    outer loop
      vertex   -5.259283e-001 1.671827e+000 0.000000e+000
      vertex   -5.259283e-001 1.671827e+000 2.778125e+000
      vertex   -6.801698e-001 1.615232e+000 0.000000e+000
    endloop
  endfacet
  facet normal 4.308637e-001 -9.024170e-001 0.000000e+000
    outer loop
      vertex   -6.801698e-001 1.615232e+000 0.000000e+000
      vertex   -6.801698e-001 1.615232e+000 2.778125e+000
      vertex   -8.284339e-001 1.544443e+000 0.000000e+000
    endloop
  endfacet
  facet normal 5.134742e-001 -8.581050e-001 0.000000e+000
    outer loop
      vertex   -8.284339e-001 1.544443e+000 0.000000e+000
      vertex   -8.284339e-001 1.544443e+000 2.778125e+000
      vertex   -9.694177e-001 1.460081e+000 0.000000e+000
    endloop
  endfacet
  facet normal 5.915722e-001 -8.062520e-001 -1.010466e-016
    outer loop
      vertex   -9.694177e-001 1.460081e+000 0.000000e+000
      vertex   -9.694177e-001 1.460081e+000 2.778125e+000
      vertex   -1.101882e+000 1.362888e+000 0.000000e+000
    endloop
  endfacet
  facet normal 6.644715e-001 -7.473136e-001 0.000000e+000
    outer loop
      vertex   -1.101882e+000 1.362888e+000 0.000000e+000
      vertex   -1.101882e+000 1.362888e+000 2.778125e+000
      vertex   -1.224663e+000 1.253717e+000 0.000000e+000
    endloop
  endfacet
  facet normal 7.315313e-001 -6.818078e-001 0.000000e+000
    outer loop
      vertex   -1.224663e+000 1.253717e+000 0.000000e+000
      vertex   -1.224663e+000 1.253717e+000 2.778125e+000
      vertex   -1.336682e+000 1.133529e+000 0.000000e+000
    endloop
  endfacet
  facet normal 7.921625e-001 -6.103103e-001 0.000000e+000
    outer loop
      vertex   -1.336682e+000 1.133529e+000 0.000000e+000
      vertex   -1.336682e+000 1.133529e+000 2.778125e+000
      vertex   -1.436954e+000 1.003379e+000 0.000000e+000
    endloop
  endfacet
  facet normal 8.458321e-001 -5.334493e-001 -7.298553e-018
    outer loop
      vertex   -1.436954e+000 1.003379e+000 0.000000e+000
      vertex   -1.436954e+000 1.003379e+000 2.778125e+000
      vertex   -1.524598e+000 8.644119e-001 0.000000e+000
    endloop
  endfacet
  facet normal 8.920684e-001 -4.519003e-001 0.000000e+000
    outer loop
      vertex   -1.524598e+000 8.644119e-001 0.000000e+000
      vertex   -1.524598e+000 8.644119e-001 2.778125e+000
      vertex   -1.598844e+000 7.178481e-001 0.000000e+000
    endloop
  endfacet
  facet normal 9.304653e-001 -3.663800e-001 8.784995e-017
    outer loop
      vertex   -1.598844e+000 7.178481e-001 0.000000e+000
      vertex   -1.598844e+000 7.178481e-001 2.778125e+000
      vertex   -1.659039e+000 5.649757e-001 0.000000e+000
    endloop
  endfacet
  facet normal 9.606852e-001 -2.776400e-001 0.000000e+000
    outer loop
      vertex   -1.659039e+000 5.649757e-001 0.000000e+000
      vertex   -1.659039e+000 5.649757e-001 2.778125e+000
      vertex   -1.704654e+000 4.071384e-001 0.000000e+000
    endloop
  endfacet
  facet normal 9.824625e-001 -1.864601e-001 -1.123397e-016
    outer loop
      vertex   -1.704654e+000 4.071384e-001 0.000000e+000
      vertex   -1.704654e+000 4.071384e-001 2.778125e+000
      vertex   -1.735289e+000 2.457231e-001 0.000000e+000
    endloop
  endfacet
  facet normal 9.956060e-001 -9.364149e-002 0.000000e+000
    outer loop
      vertex   -1.735289e+000 2.457231e-001 0.000000e+000
      vertex   -1.735289e+000 2.457231e-001 2.778125e+000
      vertex   -1.750674e+000 8.214833e-002 0.000000e+000
    endloop
  endfacet
  facet normal 1.000000e+000 0.000000e+000 -0.000000e+000
    outer loop
      vertex   -1.750674e+000 8.214833e-002 0.000000e+000
      vertex   -1.750674e+000 8.214833e-002 2.778125e+000
      vertex   -1.750674e+000 -8.214833e-002 0.000000e+000
    endloop
  endfacet
  facet normal 9.956060e-001 9.364149e-002 -0.000000e+000
    outer loop
      vertex   -1.750674e+000 -8.214833e-002 0.000000e+000
      vertex   -1.750674e+000 -8.214833e-002 2.778125e+000
      vertex   -1.735289e+000 -2.457231e-001 0.000000e+000
    endloop
  endfacet
  facet normal 9.824625e-001 1.864601e-001 -0.000000e+000
    outer loop
      vertex   -1.735289e+000 -2.457231e-001 0.000000e+000
      vertex   -1.735289e+000 -2.457231e-001 2.778125e+000
      vertex   -1.704654e+000 -4.071384e-001 0.000000e+000
    endloop
  endfacet
  facet normal 9.606852e-001 2.776400e-001 8.699556e-017
    outer loop
      vertex   -1.704654e+000 -4.071384e-001 0.000000e+000
      vertex   -1.704654e+000 -4.071384e-001 2.778125e+000
      vertex   -1.659039e+000 -5.649757e-001 0.000000e+000
    endloop
  endfacet
  facet normal 9.304653e-001 3.663800e-001 -0.000000e+000
    outer loop
      vertex   -1.659039e+000 -5.649757e-001 0.000000e+000
      vertex   -1.659039e+000 -5.649757e-001 2.778125e+000
      vertex   -1.598844e+000 -7.178481e-001 0.000000e+000
    endloop
  endfacet
  facet normal 8.920684e-001 4.519003e-001 -1.083558e-016
    outer loop
      vertex   -1.598844e+000 -7.178481e-001 0.000000e+000
      vertex   -1.598844e+000 -7.178481e-001 2.778125e+000
      vertex   -1.524598e+000 -8.644119e-001 0.000000e+000
    endloop
  endfacet
  facet normal 8.458321e-001 5.334493e-001 -0.000000e+000
    outer loop
      vertex   -1.524598e+000 -8.644119e-001 0.000000e+000
      vertex   -1.524598e+000 -8.644119e-001 2.778125e+000
      vertex   -1.436954e+000 -1.003379e+000 0.000000e+000
    endloop
  endfacet
  facet normal 7.921625e-001 6.103103e-001 -1.971023e-017
    outer loop
      vertex   -1.436954e+000 -1.003379e+000 0.000000e+000
      vertex   -1.436954e+000 -1.003379e+000 2.778125e+000
      vertex   -1.336682e+000 -1.133529e+000 0.000000e+000
    endloop
  endfacet
  facet normal 7.315313e-001 6.818078e-001 -0.000000e+000
    outer loop
      vertex   -1.336682e+000 -1.133529e+000 0.000000e+000
      vertex   -1.336682e+000 -1.133529e+000 2.778125e+000
      vertex   -1.224663e+000 -1.253717e+000 0.000000e+000
    endloop
  endfacet
  facet normal 6.644715e-001 7.473136e-001 -0.000000e+000
    outer loop
      vertex   -1.224663e+000 -1.253717e+000 0.000000e+000
      vertex   -1.224663e+000 -1.253717e+000 2.778125e+000
      vertex   -1.101882e+000 -1.362888e+000 0.000000e+000
    endloop
  endfacet
  facet normal 5.915722e-001 8.062520e-001 -0.000000e+000
    outer loop
      vertex   -1.101882e+000 -1.362888e+000 0.000000e+000
      vertex   -1.101882e+000 -1.362888e+000 2.778125e+000
      vertex   -9.694177e-001 -1.460081e+000 0.000000e+000
    endloop
  endfacet
  facet normal 5.134742e-001 8.581050e-001 7.505494e-017
    outer loop
      vertex   -9.694177e-001 -1.460081e+000 0.000000e+000
      vertex   -9.694177e-001 -1.460081e+000 2.778125e+000
      vertex   -8.284339e-001 -1.544443e+000 0.000000e+000
    endloop
  endfacet
  facet normal 4.308637e-001 9.024170e-001 -0.000000e+000
    outer loop
      vertex   -8.284339e-001 -1.544443e+000 0.000000e+000
      vertex   -8.284339e-001 -1.544443e+000 2.778125e+000
      vertex   -6.801698e-001 -1.615232e+000 0.000000e+000
    endloop
  endfacet
  facet normal 3.444669e-001 9.387985e-001 -0.000000e+000
    outer loop
      vertex   -6.801698e-001 -1.615232e+000 0.000000e+000
      vertex   -6.801698e-001 -1.615232e+000 2.778125e+000
      vertex   -5.259283e-001 -1.671827e+000 0.000000e+000
    endloop
  endfacet
  facet normal 2.550428e-001 9.669298e-001 -1.612920e-017
    outer loop
      vertex   -5.259283e-001 -1.671827e+000 0.000000e+000
      vertex   -5.259283e-001 -1.671827e+000 2.778125e+000
      vertex   -3.670650e-001 -1.713730e+000 0.000000e+000
    endloop
  endfacet
  facet normal 1.633774e-001 9.865637e-001 -1.958716e-017
    outer loop
      vertex   -3.670650e-001 -1.713730e+000 0.000000e+000
      vertex   -3.670650e-001 -1.713730e+000 2.778125e+000
      vertex   -2.049759e-001 -1.740572e+000 0.000000e+000
    endloop
  endfacet
  facet normal 7.027619e-002 9.975276e-001 -0.000000e+000
    outer loop
      vertex   -2.049759e-001 -1.740572e+000 0.000000e+000
      vertex   -2.049759e-001 -1.740572e+000 2.778125e+000
      vertex   -4.108545e-002 -1.752118e+000 0.000000e+000
    endloop
  endfacet
  facet normal -2.344257e-002 9.997252e-001 -3.220375e-018
    outer loop
      vertex   -4.108545e-002 -1.752118e+000 0.000000e+000
      vertex   -4.108545e-002 -1.752118e+000 2.778125e+000
      vertex   1.231660e-001 -1.748267e+000 0.000000e+000
    endloop
  endfacet
  facet normal -1.169553e-001 9.931372e-001 -3.271723e-017
    outer loop
      vertex   1.231660e-001 -1.748267e+000 0.000000e+000
      vertex   1.231660e-001 -1.748267e+000 2.778125e+000
      vertex   2.863352e-001 -1.729051e+000 0.000000e+000
    endloop
  endfacet
  facet normal -2.094403e-001 9.778214e-001 2.929454e-017
    outer loop
      vertex   2.863352e-001 -1.729051e+000 0.000000e+000
      vertex   2.863352e-001 -1.729051e+000 2.778125e+000
      vertex   4.469880e-001 -1.694641e+000 0.000000e+000
    endloop
  endfacet
  facet normal -3.000846e-001 9.539126e-001 0.000000e+000
    outer loop
      vertex   4.469880e-001 -1.694641e+000 0.000000e+000
      vertex   4.469880e-001 -1.694641e+000 2.778125e+000
      vertex   6.037126e-001 -1.645338e+000 0.000000e+000
    endloop
  endfacet
  facet normal -3.880919e-001 9.216207e-001 -6.203731e-017
    outer loop
      vertex   6.037126e-001 -1.645338e+000 0.000000e+000
      vertex   6.037126e-001 -1.645338e+000 2.778125e+000
      vertex   7.551318e-001 -1.581576e+000 0.000000e+000
    endloop
  endfacet
  facet normal -4.726885e-001 8.812296e-001 -4.290718e-017
    outer loop
      vertex   7.551318e-001 -1.581576e+000 0.000000e+000
      vertex   7.551318e-001 -1.581576e+000 2.778125e+000
      vertex   8.999149e-001 -1.503915e+000 0.000000e+000
    endloop
  endfacet
  facet normal -5.531312e-001 8.330942e-001 0.000000e+000
    outer loop
      vertex   8.999149e-001 -1.503915e+000 0.000000e+000
      vertex   8.999149e-001 -1.503915e+000 2.778125e+000
      vertex   1.036789e+000 -1.413037e+000 0.000000e+000
    endloop
  endfacet
  facet normal -6.287129e-001 7.776375e-001 0.000000e+000
    outer loop
      vertex   1.036789e+000 -1.413037e+000 0.000000e+000
      vertex   1.036789e+000 -1.413037e+000 2.778125e+000
      vertex   1.164553e+000 -1.309742e+000 0.000000e+000
    endloop
  endfacet
  facet normal -6.987694e-001 7.153470e-001 -1.090498e-016
    outer loop
      vertex   1.164553e+000 -1.309742e+000 0.000000e+000
      vertex   1.164553e+000 -1.309742e+000 2.778125e+000
      vertex   1.282082e+000 -1.194936e+000 0.000000e+000
    endloop
  endfacet
  facet normal -7.626852e-001 6.467699e-001 0.000000e+000
    outer loop
      vertex   1.282082e+000 -1.194936e+000 0.000000e+000
      vertex   1.282082e+000 -1.194936e+000 2.778125e+000
      vertex   1.388344e+000 -1.069630e+000 0.000000e+000
    endloop
  endfacet
  facet normal -8.198984e-001 5.725090e-001 0.000000e+000
    outer loop
      vertex   1.388344e+000 -1.069630e+000 0.000000e+000
      vertex   1.388344e+000 -1.069630e+000 2.778125e+000
      vertex   1.482405e+000 -9.349232e-001 0.000000e+000
    endloop
  endfacet
  facet normal -8.699064e-001 4.932169e-001 0.000000e+000
    outer loop
      vertex   1.482405e+000 -9.349232e-001 0.000000e+000
      vertex   1.482405e+000 -9.349232e-001 2.778125e+000
      vertex   1.563439e+000 -7.920005e-001 0.000000e+000
    endloop
  endfacet
  facet normal -9.122696e-001 4.095904e-001 -4.761740e-017
    outer loop
      vertex   1.563439e+000 -7.920005e-001 0.000000e+000
      vertex   1.563439e+000 -7.920005e-001 2.778125e+000
      vertex   1.630733e+000 -6.421177e-001 0.000000e+000
    endloop
  endfacet
  facet normal -9.466157e-001 3.223643e-001 0.000000e+000
    outer loop
      vertex   1.630733e+000 -6.421177e-001 0.000000e+000
      vertex   1.630733e+000 -6.421177e-001 2.778125e+000
      vertex   1.683697e+000 -4.865919e-001 0.000000e+000
    endloop
  endfacet
  facet normal -9.726429e-001 2.323054e-001 0.000000e+000
    outer loop
      vertex   1.683697e+000 -4.865919e-001 0.000000e+000
      vertex   1.683697e+000 -4.865919e-001 2.778125e+000
      vertex   1.721864e+000 -3.267899e-001 0.000000e+000
    endloop
  endfacet
  facet normal -9.901225e-001 1.402049e-001 -3.991551e-017
    outer loop
      vertex   1.721864e+000 -3.267899e-001 0.000000e+000
      vertex   1.721864e+000 -3.267899e-001 2.778125e+000
      vertex   1.744899e+000 -1.641161e-001 0.000000e+000
    endloop
  endfacet
  facet normal -9.989009e-001 4.687226e-002 -1.311210e-017
    outer loop
      vertex   1.744899e+000 -1.641161e-001 0.000000e+000
      vertex   1.744899e+000 -1.641161e-001 2.778125e+000
      vertex   1.752600e+000 2.146316e-016 0.000000e+000
    endloop
  endfacet
  facet normal 8.660254e-001 -5.000000e-001 1.395261e-016
    outer loop
      vertex   2.291359e+000 -3.968750e+000 0.000000e+000
      vertex   4.582718e+000 3.709603e-015 0.000000e+000
      vertex   2.291359e+000 -3.968750e+000 2.778125e+000
    endloop
  endfacet
  facet normal 8.660254e-001 -5.000000e-001 3.170804e-017
    outer loop
      vertex   2.291359e+000 -3.968750e+000 2.778125e+000
      vertex   4.582718e+000 3.709603e-015 0.000000e+000
      vertex   4.582718e+000 3.885781e-015 2.778125e+000
    endloop
  endfacet
  facet normal 1.938104e-016 -1.000000e+000 -1.598521e-016
    outer loop
      vertex   -2.291359e+000 -3.968750e+000 0.000000e+000
      vertex   2.291359e+000 -3.968750e+000 0.000000e+000
      vertex   -2.291359e+000 -3.968750e+000 2.778125e+000
    endloop
  endfacet
  facet normal 3.876208e-016 -1.000000e+000 1.598521e-016
    outer loop
      vertex   -2.291359e+000 -3.968750e+000 2.778125e+000
      vertex   2.291359e+000 -3.968750e+000 0.000000e+000
      vertex   2.291359e+000 -3.968750e+000 2.778125e+000
    endloop
  endfacet
  facet normal -8.660254e-001 -5.000000e-001 0.000000e+000
    outer loop
      vertex   -4.582718e+000 1.289389e-015 0.000000e+000
      vertex   -2.291359e+000 -3.968750e+000 0.000000e+000
      vertex   -4.582718e+000 1.110223e-015 2.778125e+000
    endloop
  endfacet
  facet normal -8.660254e-001 -5.000000e-001 -7.992607e-017
    outer loop
      vertex   -4.582718e+000 1.110223e-015 2.778125e+000
      vertex   -2.291359e+000 -3.968750e+000 0.000000e+000
      vertex   -2.291359e+000 -3.968750e+000 2.778125e+000
    endloop
  endfacet
  facet normal -8.660254e-001 5.000000e-001 0.000000e+000
    outer loop
      vertex   -2.291359e+000 3.968750e+000 0.000000e+000
      vertex   -4.582718e+000 1.289389e-015 0.000000e+000
      vertex   -2.291359e+000 3.968750e+000 2.778125e+000
    endloop
  endfacet
  facet normal -8.660254e-001 5.000000e-001 3.224593e-017
    outer loop
      vertex   -2.291359e+000 3.968750e+000 2.778125e+000
      vertex   -4.582718e+000 1.289389e-015 0.000000e+000
      vertex   -4.582718e+000 1.110223e-015 2.778125e+000
    endloop
  endfacet
  facet normal -7.752416e-016 1.000000e+000 0.000000e+000
    outer loop
      vertex   2.291359e+000 3.968750e+000 0.000000e+000
      vertex   -2.291359e+000 3.968750e+000 0.000000e+000
      vertex   2.291359e+000 3.968750e+000 2.778125e+000
    endloop
  endfacet
  facet normal -7.752416e-016 1.000000e+000 0.000000e+000
    outer loop
      vertex   2.291359e+000 3.968750e+000 2.778125e+000
      vertex   -2.291359e+000 3.968750e+000 0.000000e+000
      vertex   -2.291359e+000 3.968750e+000 2.778125e+000
    endloop
  endfacet
  facet normal 8.660254e-001 5.000000e-001 -1.395261e-016
    outer loop
      vertex   4.582718e+000 3.709603e-015 0.000000e+000
      vertex   2.291359e+000 3.968750e+000 0.000000e+000
      vertex   4.582718e+000 3.885781e-015 2.778125e+000
    endloop
  endfacet
  facet normal 8.660254e-001 5.000000e-001 -0.000000e+000
    outer loop
      vertex   4.582718e+000 3.885781e-015 2.778125e+000
      vertex   2.291359e+000 3.968750e+000 0.000000e+000
      vertex   2.291359e+000 3.968750e+000 2.778125e+000
    endloop
  endfacet
  facet normal -0.000000e+000 0.000000e+000 1.000000e+000
    outer loop
      vertex   1.744899e+000 1.641161e-001 2.778125e+000
      vertex   1.752600e+000 2.146316e-016 2.778125e+000
      vertex   4.582718e+000 3.885781e-015 2.778125e+000
    endloop
  endfacet
  facet normal -0.000000e+000 -0.000000e+000 1.000000e+000
    outer loop
      vertex   1.721864e+000 3.267899e-001 2.778125e+000
      vertex   4.582718e+000 3.885781e-015 2.778125e+000
      vertex   1.683697e+000 4.865919e-001 2.778125e+000
    endloop
  endfacet
  facet normal 0.000000e+000 0.000000e+000 1.000000e+000
    outer loop
      vertex   1.721864e+000 3.267899e-001 2.778125e+000
      vertex   1.744899e+000 1.641161e-001 2.778125e+000
      vertex   4.582718e+000 3.885781e-015 2.778125e+000
    endloop
  endfacet
  facet normal -0.000000e+000 0.000000e+000 1.000000e+000
    outer loop
      vertex   1.752600e+000 2.146316e-016 2.778125e+000
      vertex   1.744899e+000 -1.641161e-001 2.778125e+000
      vertex   4.582718e+000 3.885781e-015 2.778125e+000
    endloop
  endfacet
  facet normal 0.000000e+000 0.000000e+000 1.000000e+000
    outer loop
      vertex   4.582718e+000 3.885781e-015 2.778125e+000
      vertex   1.744899e+000 -1.641161e-001 2.778125e+000
      vertex   1.721864e+000 -3.267899e-001 2.778125e+000
    endloop
  endfacet
  facet normal 0.000000e+000 -0.000000e+000 1.000000e+000
    outer loop
      vertex   1.683697e+000 -4.865919e-001 2.778125e+000
      vertex   4.582718e+000 3.885781e-015 2.778125e+000
      vertex   1.721864e+000 -3.267899e-001 2.778125e+000
    endloop
  endfacet
  facet normal -0.000000e+000 0.000000e+000 1.000000e+000
    outer loop
      vertex   1.683697e+000 -4.865919e-001 2.778125e+000
      vertex   1.630733e+000 -6.421177e-001 2.778125e+000
      vertex   4.582718e+000 3.885781e-015 2.778125e+000
    endloop
  endfacet
  facet normal 0.000000e+000 0.000000e+000 1.000000e+000
    outer loop
      vertex   4.582718e+000 3.885781e-015 2.778125e+000
      vertex   1.630733e+000 -6.421177e-001 2.778125e+000
      vertex   1.563439e+000 -7.920005e-001 2.778125e+000
    endloop
  endfacet
  facet normal 0.000000e+000 -0.000000e+000 1.000000e+000
    outer loop
      vertex   1.482405e+000 -9.349232e-001 2.778125e+000
      vertex   4.582718e+000 3.885781e-015 2.778125e+000
      vertex   1.563439e+000 -7.920005e-001 2.778125e+000
    endloop
  endfacet
  facet normal -0.000000e+000 0.000000e+000 1.000000e+000
    outer loop
      vertex   1.482405e+000 -9.349232e-001 2.778125e+000
      vertex   2.291359e+000 -3.968750e+000 2.778125e+000
      vertex   4.582718e+000 3.885781e-015 2.778125e+000
    endloop
  endfacet
  facet normal 0.000000e+000 0.000000e+000 1.000000e+000
    outer loop
      vertex   1.482405e+000 -9.349232e-001 2.778125e+000
      vertex   1.388344e+000 -1.069630e+000 2.778125e+000
      vertex   2.291359e+000 -3.968750e+000 2.778125e+000
    endloop
  endfacet
  facet normal 0.000000e+000 0.000000e+000 1.000000e+000
    outer loop
      vertex   2.291359e+000 -3.968750e+000 2.778125e+000
      vertex   1.388344e+000 -1.069630e+000 2.778125e+000
      vertex   1.282082e+000 -1.194936e+000 2.778125e+000
    endloop
  endfacet
  facet normal -0.000000e+000 -0.000000e+000 1.000000e+000
    outer loop
      vertex   1.164553e+000 -1.309742e+000 2.778125e+000
      vertex   2.291359e+000 -3.968750e+000 2.778125e+000
      vertex   1.282082e+000 -1.194936e+000 2.778125e+000
    endloop
  endfacet
  facet normal 0.000000e+000 0.000000e+000 1.000000e+000
    outer loop
      vertex   1.164553e+000 -1.309742e+000 2.778125e+000
      vertex   1.036789e+000 -1.413037e+000 2.778125e+000
      vertex   2.291359e+000 -3.968750e+000 2.778125e+000
    endloop
  endfacet
  facet normal 0.000000e+000 0.000000e+000 1.000000e+000
    outer loop
      vertex   2.291359e+000 -3.968750e+000 2.778125e+000
      vertex   1.036789e+000 -1.413037e+000 2.778125e+000
      vertex   8.999149e-001 -1.503915e+000 2.778125e+000
    endloop
  endfacet
  facet normal -0.000000e+000 -0.000000e+000 1.000000e+000
    outer loop
      vertex   7.551318e-001 -1.581576e+000 2.778125e+000
      vertex   2.291359e+000 -3.968750e+000 2.778125e+000
      vertex   8.999149e-001 -1.503915e+000 2.778125e+000
    endloop
  endfacet
  facet normal 0.000000e+000 0.000000e+000 1.000000e+000
    outer loop
      vertex   7.551318e-001 -1.581576e+000 2.778125e+000
      vertex   6.037126e-001 -1.645338e+000 2.778125e+000
      vertex   2.291359e+000 -3.968750e+000 2.778125e+000
    endloop
  endfacet
  facet normal 0.000000e+000 0.000000e+000 1.000000e+000
    outer loop
      vertex   2.291359e+000 -3.968750e+000 2.778125e+000
      vertex   6.037126e-001 -1.645338e+000 2.778125e+000
      vertex   4.469880e-001 -1.694641e+000 2.778125e+000
    endloop
  endfacet
  facet normal -0.000000e+000 -0.000000e+000 1.000000e+000
    outer loop
      vertex   2.863352e-001 -1.729051e+000 2.778125e+000
      vertex   2.291359e+000 -3.968750e+000 2.778125e+000
      vertex   4.469880e-001 -1.694641e+000 2.778125e+000
    endloop
  endfacet
  facet normal 0.000000e+000 0.000000e+000 1.000000e+000
    outer loop
      vertex   2.863352e-001 -1.729051e+000 2.778125e+000
      vertex   1.231660e-001 -1.748267e+000 2.778125e+000
      vertex   2.291359e+000 -3.968750e+000 2.778125e+000
    endloop
  endfacet
  facet normal 0.000000e+000 0.000000e+000 1.000000e+000
    outer loop
      vertex   2.291359e+000 -3.968750e+000 2.778125e+000
      vertex   1.231660e-001 -1.748267e+000 2.778125e+000
      vertex   -4.108545e-002 -1.752118e+000 2.778125e+000
    endloop
  endfacet
  facet normal 0.000000e+000 -0.000000e+000 1.000000e+000
    outer loop
      vertex   -2.291359e+000 -3.968750e+000 2.778125e+000
      vertex   -4.108545e-002 -1.752118e+000 2.778125e+000
      vertex   -2.049759e-001 -1.740572e+000 2.778125e+000
    endloop
  endfacet
  facet normal -0.000000e+000 0.000000e+000 1.000000e+000
    outer loop
      vertex   -3.670650e-001 -1.713730e+000 2.778125e+000
      vertex   -2.291359e+000 -3.968750e+000 2.778125e+000
      vertex   -2.049759e-001 -1.740572e+000 2.778125e+000
    endloop
  endfacet
  facet normal 0.000000e+000 0.000000e+000 1.000000e+000
    outer loop
      vertex   -3.670650e-001 -1.713730e+000 2.778125e+000
      vertex   -5.259283e-001 -1.671827e+000 2.778125e+000
      vertex   -2.291359e+000 -3.968750e+000 2.778125e+000
    endloop
  endfacet
  facet normal 0.000000e+000 -0.000000e+000 1.000000e+000
    outer loop
      vertex   -2.291359e+000 -3.968750e+000 2.778125e+000
      vertex   -5.259283e-001 -1.671827e+000 2.778125e+000
      vertex   -6.801698e-001 -1.615232e+000 2.778125e+000
    endloop
  endfacet
  facet normal -0.000000e+000 0.000000e+000 1.000000e+000
    outer loop
      vertex   -8.284339e-001 -1.544443e+000 2.778125e+000
      vertex   -2.291359e+000 -3.968750e+000 2.778125e+000
      vertex   -6.801698e-001 -1.615232e+000 2.778125e+000
    endloop
  endfacet
  facet normal 0.000000e+000 0.000000e+000 1.000000e+000
    outer loop
      vertex   -8.284339e-001 -1.544443e+000 2.778125e+000
      vertex   -9.694177e-001 -1.460081e+000 2.778125e+000
      vertex   -2.291359e+000 -3.968750e+000 2.778125e+000
    endloop
  endfacet
  facet normal 0.000000e+000 -0.000000e+000 1.000000e+000
    outer loop
      vertex   -2.291359e+000 -3.968750e+000 2.778125e+000
      vertex   -9.694177e-001 -1.460081e+000 2.778125e+000
      vertex   -1.101882e+000 -1.362888e+000 2.778125e+000
    endloop
  endfacet
  facet normal -0.000000e+000 0.000000e+000 1.000000e+000
    outer loop
      vertex   -1.224663e+000 -1.253717e+000 2.778125e+000
      vertex   -2.291359e+000 -3.968750e+000 2.778125e+000
      vertex   -1.101882e+000 -1.362888e+000 2.778125e+000
    endloop
  endfacet
  facet normal 0.000000e+000 0.000000e+000 1.000000e+000
    outer loop
      vertex   -1.224663e+000 -1.253717e+000 2.778125e+000
      vertex   -1.336682e+000 -1.133529e+000 2.778125e+000
      vertex   -2.291359e+000 -3.968750e+000 2.778125e+000
    endloop
  endfacet
  facet normal 0.000000e+000 -0.000000e+000 1.000000e+000
    outer loop
      vertex   -2.291359e+000 -3.968750e+000 2.778125e+000
      vertex   -1.336682e+000 -1.133529e+000 2.778125e+000
      vertex   -1.436954e+000 -1.003379e+000 2.778125e+000
    endloop
  endfacet
  facet normal -0.000000e+000 -0.000000e+000 1.000000e+000
    outer loop
      vertex   -4.582718e+000 1.110223e-015 2.778125e+000
      vertex   -1.436954e+000 -1.003379e+000 2.778125e+000
      vertex   -1.524598e+000 -8.644119e-001 2.778125e+000
    endloop
  endfacet
  facet normal 0.000000e+000 0.000000e+000 1.000000e+000
    outer loop
      vertex   -1.598844e+000 -7.178481e-001 2.778125e+000
      vertex   -4.582718e+000 1.110223e-015 2.778125e+000
      vertex   -1.524598e+000 -8.644119e-001 2.778125e+000
    endloop
  endfacet
  facet normal 0.000000e+000 0.000000e+000 1.000000e+000
    outer loop
      vertex   -1.598844e+000 -7.178481e-001 2.778125e+000
      vertex   -1.659039e+000 -5.649757e-001 2.778125e+000
      vertex   -4.582718e+000 1.110223e-015 2.778125e+000
    endloop
  endfacet
  facet normal -0.000000e+000 -0.000000e+000 1.000000e+000
    outer loop
      vertex   -4.582718e+000 1.110223e-015 2.778125e+000
      vertex   -1.659039e+000 -5.649757e-001 2.778125e+000
      vertex   -1.704654e+000 -4.071384e-001 2.778125e+000
    endloop
  endfacet
  facet normal 0.000000e+000 0.000000e+000 1.000000e+000
    outer loop
      vertex   -1.735289e+000 -2.457231e-001 2.778125e+000
      vertex   -4.582718e+000 1.110223e-015 2.778125e+000
      vertex   -1.704654e+000 -4.071384e-001 2.778125e+000
    endloop
  endfacet
  facet normal 0.000000e+000 0.000000e+000 1.000000e+000
    outer loop
      vertex   -1.735289e+000 -2.457231e-001 2.778125e+000
      vertex   -1.750674e+000 -8.214833e-002 2.778125e+000
      vertex   -4.582718e+000 1.110223e-015 2.778125e+000
    endloop
  endfacet
  facet normal -0.000000e+000 0.000000e+000 1.000000e+000
    outer loop
      vertex   -4.582718e+000 1.110223e-015 2.778125e+000
      vertex   -1.750674e+000 -8.214833e-002 2.778125e+000
      vertex   -1.750674e+000 8.214833e-002 2.778125e+000
    endloop
  endfacet
  facet normal -0.000000e+000 0.000000e+000 1.000000e+000
    outer loop
      vertex   -1.735289e+000 2.457231e-001 2.778125e+000
      vertex   -4.582718e+000 1.110223e-015 2.778125e+000
      vertex   -1.750674e+000 8.214833e-002 2.778125e+000
    endloop
  endfacet
  facet normal 0.000000e+000 -0.000000e+000 1.000000e+000
    outer loop
      vertex   -1.735289e+000 2.457231e-001 2.778125e+000
      vertex   -1.704654e+000 4.071384e-001 2.778125e+000
      vertex   -4.582718e+000 1.110223e-015 2.778125e+000
    endloop
  endfacet
  facet normal 0.000000e+000 0.000000e+000 1.000000e+000
    outer loop
      vertex   -4.582718e+000 1.110223e-015 2.778125e+000
      vertex   -1.704654e+000 4.071384e-001 2.778125e+000
      vertex   -1.659039e+000 5.649757e-001 2.778125e+000
    endloop
  endfacet
  facet normal -0.000000e+000 0.000000e+000 1.000000e+000
    outer loop
      vertex   -1.598844e+000 7.178481e-001 2.778125e+000
      vertex   -4.582718e+000 1.110223e-015 2.778125e+000
      vertex   -1.659039e+000 5.649757e-001 2.778125e+000
    endloop
  endfacet
  facet normal 0.000000e+000 -0.000000e+000 1.000000e+000
    outer loop
      vertex   -1.598844e+000 7.178481e-001 2.778125e+000
      vertex   -1.524598e+000 8.644119e-001 2.778125e+000
      vertex   -4.582718e+000 1.110223e-015 2.778125e+000
    endloop
  endfacet
  facet normal 0.000000e+000 0.000000e+000 1.000000e+000
    outer loop
      vertex   -4.582718e+000 1.110223e-015 2.778125e+000
      vertex   -1.524598e+000 8.644119e-001 2.778125e+000
      vertex   -1.436954e+000 1.003379e+000 2.778125e+000
    endloop
  endfacet
  facet normal -0.000000e+000 0.000000e+000 1.000000e+000
    outer loop
      vertex   -2.291359e+000 3.968750e+000 2.778125e+000
      vertex   -1.436954e+000 1.003379e+000 2.778125e+000
      vertex   -1.336682e+000 1.133529e+000 2.778125e+000
    endloop
  endfacet
  facet normal 0.000000e+000 0.000000e+000 1.000000e+000
    outer loop
      vertex   -1.224663e+000 1.253717e+000 2.778125e+000
      vertex   -2.291359e+000 3.968750e+000 2.778125e+000
      vertex   -1.336682e+000 1.133529e+000 2.778125e+000
    endloop
  endfacet
  facet normal 0.000000e+000 -0.000000e+000 1.000000e+000
    outer loop
      vertex   -1.224663e+000 1.253717e+000 2.778125e+000
      vertex   -1.101882e+000 1.362888e+000 2.778125e+000
      vertex   -2.291359e+000 3.968750e+000 2.778125e+000
    endloop
  endfacet
  facet normal -0.000000e+000 0.000000e+000 1.000000e+000
    outer loop
      vertex   -2.291359e+000 3.968750e+000 2.778125e+000
      vertex   -1.101882e+000 1.362888e+000 2.778125e+000
      vertex   -9.694177e-001 1.460081e+000 2.778125e+000
    endloop
  endfacet
  facet normal 0.000000e+000 0.000000e+000 1.000000e+000
    outer loop
      vertex   -8.284339e-001 1.544443e+000 2.778125e+000
      vertex   -2.291359e+000 3.968750e+000 2.778125e+000
      vertex   -9.694177e-001 1.460081e+000 2.778125e+000
    endloop
  endfacet
  facet normal 0.000000e+000 -0.000000e+000 1.000000e+000
    outer loop
      vertex   -8.284339e-001 1.544443e+000 2.778125e+000
      vertex   -6.801698e-001 1.615232e+000 2.778125e+000
      vertex   -2.291359e+000 3.968750e+000 2.778125e+000
    endloop
  endfacet
  facet normal -0.000000e+000 0.000000e+000 1.000000e+000
    outer loop
      vertex   -2.291359e+000 3.968750e+000 2.778125e+000
      vertex   -6.801698e-001 1.615232e+000 2.778125e+000
      vertex   -5.259283e-001 1.671827e+000 2.778125e+000
    endloop
  endfacet
  facet normal 0.000000e+000 0.000000e+000 1.000000e+000
    outer loop
      vertex   -3.670650e-001 1.713730e+000 2.778125e+000
      vertex   -2.291359e+000 3.968750e+000 2.778125e+000
      vertex   -5.259283e-001 1.671827e+000 2.778125e+000
    endloop
  endfacet
  facet normal 0.000000e+000 -0.000000e+000 1.000000e+000
    outer loop
      vertex   -3.670650e-001 1.713730e+000 2.778125e+000
      vertex   -2.049759e-001 1.740572e+000 2.778125e+000
      vertex   -2.291359e+000 3.968750e+000 2.778125e+000
    endloop
  endfacet
  facet normal -0.000000e+000 0.000000e+000 1.000000e+000
    outer loop
      vertex   -2.291359e+000 3.968750e+000 2.778125e+000
      vertex   -2.049759e-001 1.740572e+000 2.778125e+000
      vertex   -4.108545e-002 1.752118e+000 2.778125e+000
    endloop
  endfacet
  facet normal 0.000000e+000 0.000000e+000 1.000000e+000
    outer loop
      vertex   2.291359e+000 3.968750e+000 2.778125e+000
      vertex   -4.108545e-002 1.752118e+000 2.778125e+000
      vertex   1.231660e-001 1.748267e+000 2.778125e+000
    endloop
  endfacet
  facet normal 0.000000e+000 -0.000000e+000 1.000000e+000
    outer loop
      vertex   2.863352e-001 1.729051e+000 2.778125e+000
      vertex   2.291359e+000 3.968750e+000 2.778125e+000
      vertex   1.231660e-001 1.748267e+000 2.778125e+000
    endloop
  endfacet
  facet normal -0.000000e+000 0.000000e+000 1.000000e+000
    outer loop
      vertex   2.863352e-001 1.729051e+000 2.778125e+000
      vertex   4.469880e-001 1.694641e+000 2.778125e+000
      vertex   2.291359e+000 3.968750e+000 2.778125e+000
    endloop
  endfacet
  facet normal 0.000000e+000 0.000000e+000 1.000000e+000
    outer loop
      vertex   2.291359e+000 3.968750e+000 2.778125e+000
      vertex   4.469880e-001 1.694641e+000 2.778125e+000
      vertex   6.037126e-001 1.645338e+000 2.778125e+000
    endloop
  endfacet
  facet normal 0.000000e+000 -0.000000e+000 1.000000e+000
    outer loop
      vertex   7.551318e-001 1.581576e+000 2.778125e+000
      vertex   2.291359e+000 3.968750e+000 2.778125e+000
      vertex   6.037126e-001 1.645338e+000 2.778125e+000
    endloop
  endfacet
  facet normal -0.000000e+000 0.000000e+000 1.000000e+000
    outer loop
      vertex   7.551318e-001 1.581576e+000 2.778125e+000
      vertex   8.999149e-001 1.503915e+000 2.778125e+000
      vertex   2.291359e+000 3.968750e+000 2.778125e+000
    endloop
  endfacet
  facet normal 0.000000e+000 0.000000e+000 1.000000e+000
    outer loop
      vertex   2.291359e+000 3.968750e+000 2.778125e+000
      vertex   8.999149e-001 1.503915e+000 2.778125e+000
      vertex   1.036789e+000 1.413037e+000 2.778125e+000
    endloop
  endfacet
  facet normal 0.000000e+000 -0.000000e+000 1.000000e+000
    outer loop
      vertex   1.164553e+000 1.309742e+000 2.778125e+000
      vertex   2.291359e+000 3.968750e+000 2.778125e+000
      vertex   1.036789e+000 1.413037e+000 2.778125e+000
    endloop
  endfacet
  facet normal -0.000000e+000 0.000000e+000 1.000000e+000
    outer loop
      vertex   1.164553e+000 1.309742e+000 2.778125e+000
      vertex   1.282082e+000 1.194936e+000 2.778125e+000
      vertex   2.291359e+000 3.968750e+000 2.778125e+000
    endloop
  endfacet
  facet normal 0.000000e+000 0.000000e+000 1.000000e+000
    outer loop
      vertex   2.291359e+000 3.968750e+000 2.778125e+000
      vertex   1.282082e+000 1.194936e+000 2.778125e+000
      vertex   1.388344e+000 1.069630e+000 2.778125e+000
    endloop
  endfacet
  facet normal 0.000000e+000 -0.000000e+000 1.000000e+000
    outer loop
      vertex   1.482405e+000 9.349232e-001 2.778125e+000
      vertex   2.291359e+000 3.968750e+000 2.778125e+000
      vertex   1.388344e+000 1.069630e+000 2.778125e+000
    endloop
  endfacet
  facet normal -0.000000e+000 -0.000000e+000 1.000000e+000
    outer loop
      vertex   1.482405e+000 9.349232e-001 2.778125e+000
      vertex   4.582718e+000 3.885781e-015 2.778125e+000
      vertex   2.291359e+000 3.968750e+000 2.778125e+000
    endloop
  endfacet
  facet normal 0.000000e+000 0.000000e+000 1.000000e+000
    outer loop
      vertex   1.482405e+000 9.349232e-001 2.778125e+000
      vertex   1.563439e+000 7.920005e-001 2.778125e+000
      vertex   4.582718e+000 3.885781e-015 2.778125e+000
    endloop
  endfacet
  facet normal 0.000000e+000 0.000000e+000 1.000000e+000
    outer loop
      vertex   4.582718e+000 3.885781e-015 2.778125e+000
      vertex   1.563439e+000 7.920005e-001 2.778125e+000
      vertex   1.630733e+000 6.421177e-001 2.778125e+000
    endloop
  endfacet
  facet normal -0.000000e+000 -0.000000e+000 1.000000e+000
    outer loop
      vertex   1.683697e+000 4.865919e-001 2.778125e+000
      vertex   4.582718e+000 3.885781e-015 2.778125e+000
      vertex   1.630733e+000 6.421177e-001 2.778125e+000
    endloop
  endfacet
  facet normal 0.000000e+000 0.000000e+000 1.000000e+000
    outer loop
      vertex   2.291359e+000 -3.968750e+000 2.778125e+000
      vertex   -4.108545e-002 -1.752118e+000 2.778125e+000
      vertex   -2.291359e+000 -3.968750e+000 2.778125e+000
    endloop
  endfacet
  facet normal 0.000000e+000 -0.000000e+000 1.000000e+000
    outer loop
      vertex   -2.291359e+000 -3.968750e+000 2.778125e+000
      vertex   -1.436954e+000 -1.003379e+000 2.778125e+000
      vertex   -4.582718e+000 1.110223e-015 2.778125e+000
    endloop
  endfacet
  facet normal 0.000000e+000 -0.000000e+000 1.000000e+000
    outer loop
      vertex   -4.582718e+000 1.110223e-015 2.778125e+000
      vertex   -1.436954e+000 1.003379e+000 2.778125e+000
      vertex   -2.291359e+000 3.968750e+000 2.778125e+000
    endloop
  endfacet
  facet normal -0.000000e+000 0.000000e+000 1.000000e+000
    outer loop
      vertex   -2.291359e+000 3.968750e+000 2.778125e+000
      vertex   -4.108545e-002 1.752118e+000 2.778125e+000
      vertex   2.291359e+000 3.968750e+000 2.778125e+000
    endloop
  endfacet
  facet normal 0.000000e+000 0.000000e+000 -1.000000e+000
    outer loop
      vertex   1.744899e+000 -1.641161e-001 0.000000e+000
      vertex   1.752600e+000 2.146316e-016 0.000000e+000
      vertex   4.582718e+000 3.709603e-015 0.000000e+000
    endloop
  endfacet
  facet normal 0.000000e+000 -0.000000e+000 -1.000000e+000
    outer loop
      vertex   1.721864e+000 -3.267899e-001 0.000000e+000
      vertex   4.582718e+000 3.709603e-015 0.000000e+000
      vertex   1.683697e+000 -4.865919e-001 0.000000e+000
    endloop
  endfacet
  facet normal 0.000000e+000 0.000000e+000 -1.000000e+000
    outer loop
      vertex   1.721864e+000 -3.267899e-001 0.000000e+000
      vertex   1.744899e+000 -1.641161e-001 0.000000e+000
      vertex   4.582718e+000 3.709603e-015 0.000000e+000
    endloop
  endfacet
  facet normal 0.000000e+000 0.000000e+000 -1.000000e+000
    outer loop
      vertex   1.752600e+000 2.146316e-016 0.000000e+000
      vertex   1.744899e+000 1.641161e-001 0.000000e+000
      vertex   4.582718e+000 3.709603e-015 0.000000e+000
    endloop
  endfacet
  facet normal 0.000000e+000 0.000000e+000 -1.000000e+000
    outer loop
      vertex   4.582718e+000 3.709603e-015 0.000000e+000
      vertex   1.744899e+000 1.641161e-001 0.000000e+000
      vertex   1.721864e+000 3.267899e-001 0.000000e+000
    endloop
  endfacet
  facet normal -0.000000e+000 -0.000000e+000 -1.000000e+000
    outer loop
      vertex   1.683697e+000 4.865919e-001 0.000000e+000
      vertex   4.582718e+000 3.709603e-015 0.000000e+000
      vertex   1.721864e+000 3.267899e-001 0.000000e+000
    endloop
  endfacet
  facet normal 0.000000e+000 0.000000e+000 -1.000000e+000
    outer loop
      vertex   1.683697e+000 4.865919e-001 0.000000e+000
      vertex   1.630733e+000 6.421177e-001 0.000000e+000
      vertex   4.582718e+000 3.709603e-015 0.000000e+000
    endloop
  endfacet
  facet normal 0.000000e+000 0.000000e+000 -1.000000e+000
    outer loop
      vertex   4.582718e+000 3.709603e-015 0.000000e+000
      vertex   1.630733e+000 6.421177e-001 0.000000e+000
      vertex   1.563439e+000 7.920005e-001 0.000000e+000
    endloop
  endfacet
  facet normal -0.000000e+000 -0.000000e+000 -1.000000e+000
    outer loop
      vertex   1.482405e+000 9.349232e-001 0.000000e+000
      vertex   4.582718e+000 3.709603e-015 0.000000e+000
      vertex   1.563439e+000 7.920005e-001 0.000000e+000
    endloop
  endfacet
  facet normal 0.000000e+000 0.000000e+000 -1.000000e+000
    outer loop
      vertex   1.482405e+000 9.349232e-001 0.000000e+000
      vertex   2.291359e+000 3.968750e+000 0.000000e+000
      vertex   4.582718e+000 3.709603e-015 0.000000e+000
    endloop
  endfacet
  facet normal 0.000000e+000 0.000000e+000 -1.000000e+000
    outer loop
      vertex   1.482405e+000 9.349232e-001 0.000000e+000
      vertex   1.388344e+000 1.069630e+000 0.000000e+000
      vertex   2.291359e+000 3.968750e+000 0.000000e+000
    endloop
  endfacet
  facet normal -0.000000e+000 0.000000e+000 -1.000000e+000
    outer loop
      vertex   2.291359e+000 3.968750e+000 0.000000e+000
      vertex   1.388344e+000 1.069630e+000 0.000000e+000
      vertex   1.282082e+000 1.194936e+000 0.000000e+000
    endloop
  endfacet
  facet normal 0.000000e+000 -0.000000e+000 -1.000000e+000
    outer loop
      vertex   1.164553e+000 1.309742e+000 0.000000e+000
      vertex   2.291359e+000 3.968750e+000 0.000000e+000
      vertex   1.282082e+000 1.194936e+000 0.000000e+000
    endloop
  endfacet
  facet normal 0.000000e+000 0.000000e+000 -1.000000e+000
    outer loop
      vertex   1.164553e+000 1.309742e+000 0.000000e+000
      vertex   1.036789e+000 1.413037e+000 0.000000e+000
      vertex   2.291359e+000 3.968750e+000 0.000000e+000
    endloop
  endfacet
  facet normal -0.000000e+000 0.000000e+000 -1.000000e+000
    outer loop
      vertex   2.291359e+000 3.968750e+000 0.000000e+000
      vertex   1.036789e+000 1.413037e+000 0.000000e+000
      vertex   8.999149e-001 1.503915e+000 0.000000e+000
    endloop
  endfacet
  facet normal 0.000000e+000 -0.000000e+000 -1.000000e+000
    outer loop
      vertex   7.551318e-001 1.581576e+000 0.000000e+000
      vertex   2.291359e+000 3.968750e+000 0.000000e+000
      vertex   8.999149e-001 1.503915e+000 0.000000e+000
    endloop
  endfacet
  facet normal 0.000000e+000 0.000000e+000 -1.000000e+000
    outer loop
      vertex   7.551318e-001 1.581576e+000 0.000000e+000
      vertex   6.037126e-001 1.645338e+000 0.000000e+000
      vertex   2.291359e+000 3.968750e+000 0.000000e+000
    endloop
  endfacet
  facet normal -0.000000e+000 0.000000e+000 -1.000000e+000
    outer loop
      vertex   2.291359e+000 3.968750e+000 0.000000e+000
      vertex   6.037126e-001 1.645338e+000 0.000000e+000
      vertex   4.469880e-001 1.694641e+000 0.000000e+000
    endloop
  endfacet
  facet normal 0.000000e+000 -0.000000e+000 -1.000000e+000
    outer loop
      vertex   2.863352e-001 1.729051e+000 0.000000e+000
      vertex   2.291359e+000 3.968750e+000 0.000000e+000
      vertex   4.469880e-001 1.694641e+000 0.000000e+000
    endloop
  endfacet
  facet normal 0.000000e+000 0.000000e+000 -1.000000e+000
    outer loop
      vertex   2.863352e-001 1.729051e+000 0.000000e+000
      vertex   1.231660e-001 1.748267e+000 0.000000e+000
      vertex   2.291359e+000 3.968750e+000 0.000000e+000
    endloop
  endfacet
  facet normal -0.000000e+000 0.000000e+000 -1.000000e+000
    outer loop
      vertex   2.291359e+000 3.968750e+000 0.000000e+000
      vertex   1.231660e-001 1.748267e+000 0.000000e+000
      vertex   -4.108545e-002 1.752118e+000 0.000000e+000
    endloop
  endfacet
  facet normal 0.000000e+000 -0.000000e+000 -1.000000e+000
    outer loop
      vertex   -2.291359e+000 3.968750e+000 0.000000e+000
      vertex   -4.108545e-002 1.752118e+000 0.000000e+000
      vertex   -2.049759e-001 1.740572e+000 0.000000e+000
    endloop
  endfacet
  facet normal 0.000000e+000 0.000000e+000 -1.000000e+000
    outer loop
      vertex   -3.670650e-001 1.713730e+000 0.000000e+000
      vertex   -2.291359e+000 3.968750e+000 0.000000e+000
      vertex   -2.049759e-001 1.740572e+000 0.000000e+000
    endloop
  endfacet
  facet normal -0.000000e+000 0.000000e+000 -1.000000e+000
    outer loop
      vertex   -3.670650e-001 1.713730e+000 0.000000e+000
      vertex   -5.259283e-001 1.671827e+000 0.000000e+000
      vertex   -2.291359e+000 3.968750e+000 0.000000e+000
    endloop
  endfacet
  facet normal 0.000000e+000 -0.000000e+000 -1.000000e+000
    outer loop
      vertex   -2.291359e+000 3.968750e+000 0.000000e+000
      vertex   -5.259283e-001 1.671827e+000 0.000000e+000
      vertex   -6.801698e-001 1.615232e+000 0.000000e+000
    endloop
  endfacet
  facet normal 0.000000e+000 0.000000e+000 -1.000000e+000
    outer loop
      vertex   -8.284339e-001 1.544443e+000 0.000000e+000
      vertex   -2.291359e+000 3.968750e+000 0.000000e+000
      vertex   -6.801698e-001 1.615232e+000 0.000000e+000
    endloop
  endfacet
  facet normal -0.000000e+000 0.000000e+000 -1.000000e+000
    outer loop
      vertex   -8.284339e-001 1.544443e+000 0.000000e+000
      vertex   -9.694177e-001 1.460081e+000 0.000000e+000
      vertex   -2.291359e+000 3.968750e+000 0.000000e+000
    endloop
  endfacet
  facet normal 0.000000e+000 -0.000000e+000 -1.000000e+000
    outer loop
      vertex   -2.291359e+000 3.968750e+000 0.000000e+000
      vertex   -9.694177e-001 1.460081e+000 0.000000e+000
      vertex   -1.101882e+000 1.362888e+000 0.000000e+000
    endloop
  endfacet
  facet normal 0.000000e+000 0.000000e+000 -1.000000e+000
    outer loop
      vertex   -1.224663e+000 1.253717e+000 0.000000e+000
      vertex   -2.291359e+000 3.968750e+000 0.000000e+000
      vertex   -1.101882e+000 1.362888e+000 0.000000e+000
    endloop
  endfacet
  facet normal -0.000000e+000 0.000000e+000 -1.000000e+000
    outer loop
      vertex   -1.224663e+000 1.253717e+000 0.000000e+000
      vertex   -1.336682e+000 1.133529e+000 0.000000e+000
      vertex   -2.291359e+000 3.968750e+000 0.000000e+000
    endloop
  endfacet
  facet normal 0.000000e+000 -0.000000e+000 -1.000000e+000
    outer loop
      vertex   -2.291359e+000 3.968750e+000 0.000000e+000
      vertex   -1.336682e+000 1.133529e+000 0.000000e+000
      vertex   -1.436954e+000 1.003379e+000 0.000000e+000
    endloop
  endfacet
  facet normal 0.000000e+000 -0.000000e+000 -1.000000e+000
    outer loop
      vertex   -4.582718e+000 1.289389e-015 0.000000e+000
      vertex   -1.436954e+000 1.003379e+000 0.000000e+000
      vertex   -1.524598e+000 8.644119e-001 0.000000e+000
    endloop
  endfacet
  facet normal -0.000000e+000 0.000000e+000 -1.000000e+000
    outer loop
      vertex   -1.598844e+000 7.178481e-001 0.000000e+000
      vertex   -4.582718e+000 1.289389e-015 0.000000e+000
      vertex   -1.524598e+000 8.644119e-001 0.000000e+000
    endloop
  endfacet
  facet normal 0.000000e+000 0.000000e+000 -1.000000e+000
    outer loop
      vertex   -1.598844e+000 7.178481e-001 0.000000e+000
      vertex   -1.659039e+000 5.649757e-001 0.000000e+000
      vertex   -4.582718e+000 1.289389e-015 0.000000e+000
    endloop
  endfacet
  facet normal 0.000000e+000 -0.000000e+000 -1.000000e+000
    outer loop
      vertex   -4.582718e+000 1.289389e-015 0.000000e+000
      vertex   -1.659039e+000 5.649757e-001 0.000000e+000
      vertex   -1.704654e+000 4.071384e-001 0.000000e+000
    endloop
  endfacet
  facet normal -0.000000e+000 0.000000e+000 -1.000000e+000
    outer loop
      vertex   -1.735289e+000 2.457231e-001 0.000000e+000
      vertex   -4.582718e+000 1.289389e-015 0.000000e+000
      vertex   -1.704654e+000 4.071384e-001 0.000000e+000
    endloop
  endfacet
  facet normal 0.000000e+000 0.000000e+000 -1.000000e+000
    outer loop
      vertex   -1.735289e+000 2.457231e-001 0.000000e+000
      vertex   -1.750674e+000 8.214833e-002 0.000000e+000
      vertex   -4.582718e+000 1.289389e-015 0.000000e+000
    endloop
  endfacet
  facet normal 0.000000e+000 0.000000e+000 -1.000000e+000
    outer loop
      vertex   -4.582718e+000 1.289389e-015 0.000000e+000
      vertex   -1.750674e+000 8.214833e-002 0.000000e+000
      vertex   -1.750674e+000 -8.214833e-002 0.000000e+000
    endloop
  endfacet
  facet normal 0.000000e+000 0.000000e+000 -1.000000e+000
    outer loop
      vertex   -1.735289e+000 -2.457231e-001 0.000000e+000
      vertex   -4.582718e+000 1.289389e-015 0.000000e+000
      vertex   -1.750674e+000 -8.214833e-002 0.000000e+000
    endloop
  endfacet
  facet normal -0.000000e+000 -0.000000e+000 -1.000000e+000
    outer loop
      vertex   -1.735289e+000 -2.457231e-001 0.000000e+000
      vertex   -1.704654e+000 -4.071384e-001 0.000000e+000
      vertex   -4.582718e+000 1.289389e-015 0.000000e+000
    endloop
  endfacet
  facet normal 0.000000e+000 0.000000e+000 -1.000000e+000
    outer loop
      vertex   -4.582718e+000 1.289389e-015 0.000000e+000
      vertex   -1.704654e+000 -4.071384e-001 0.000000e+000
      vertex   -1.659039e+000 -5.649757e-001 0.000000e+000
    endloop
  endfacet
  facet normal 0.000000e+000 0.000000e+000 -1.000000e+000
    outer loop
      vertex   -1.598844e+000 -7.178481e-001 0.000000e+000
      vertex   -4.582718e+000 1.289389e-015 0.000000e+000
      vertex   -1.659039e+000 -5.649757e-001 0.000000e+000
    endloop
  endfacet
  facet normal -0.000000e+000 -0.000000e+000 -1.000000e+000
    outer loop
      vertex   -1.598844e+000 -7.178481e-001 0.000000e+000
      vertex   -1.524598e+000 -8.644119e-001 0.000000e+000
      vertex   -4.582718e+000 1.289389e-015 0.000000e+000
    endloop
  endfacet
  facet normal 0.000000e+000 0.000000e+000 -1.000000e+000
    outer loop
      vertex   -4.582718e+000 1.289389e-015 0.000000e+000
      vertex   -1.524598e+000 -8.644119e-001 0.000000e+000
      vertex   -1.436954e+000 -1.003379e+000 0.000000e+000
    endloop
  endfacet
  facet normal 0.000000e+000 0.000000e+000 -1.000000e+000
    outer loop
      vertex   -2.291359e+000 -3.968750e+000 0.000000e+000
      vertex   -1.436954e+000 -1.003379e+000 0.000000e+000
      vertex   -1.336682e+000 -1.133529e+000 0.000000e+000
    endloop
  endfacet
  facet normal -0.000000e+000 0.000000e+000 -1.000000e+000
    outer loop
      vertex   -1.224663e+000 -1.253717e+000 0.000000e+000
      vertex   -2.291359e+000 -3.968750e+000 0.000000e+000
      vertex   -1.336682e+000 -1.133529e+000 0.000000e+000
    endloop
  endfacet
  facet normal 0.000000e+000 -0.000000e+000 -1.000000e+000
    outer loop
      vertex   -1.224663e+000 -1.253717e+000 0.000000e+000
      vertex   -1.101882e+000 -1.362888e+000 0.000000e+000
      vertex   -2.291359e+000 -3.968750e+000 0.000000e+000
    endloop
  endfacet
  facet normal 0.000000e+000 0.000000e+000 -1.000000e+000
    outer loop
      vertex   -2.291359e+000 -3.968750e+000 0.000000e+000
      vertex   -1.101882e+000 -1.362888e+000 0.000000e+000
      vertex   -9.694177e-001 -1.460081e+000 0.000000e+000
    endloop
  endfacet
  facet normal -0.000000e+000 0.000000e+000 -1.000000e+000
    outer loop
      vertex   -8.284339e-001 -1.544443e+000 0.000000e+000
      vertex   -2.291359e+000 -3.968750e+000 0.000000e+000
      vertex   -9.694177e-001 -1.460081e+000 0.000000e+000
    endloop
  endfacet
  facet normal 0.000000e+000 -0.000000e+000 -1.000000e+000
    outer loop
      vertex   -8.284339e-001 -1.544443e+000 0.000000e+000
      vertex   -6.801698e-001 -1.615232e+000 0.000000e+000
      vertex   -2.291359e+000 -3.968750e+000 0.000000e+000
    endloop
  endfacet
  facet normal 0.000000e+000 0.000000e+000 -1.000000e+000
    outer loop
      vertex   -2.291359e+000 -3.968750e+000 0.000000e+000
      vertex   -6.801698e-001 -1.615232e+000 0.000000e+000
      vertex   -5.259283e-001 -1.671827e+000 0.000000e+000
    endloop
  endfacet
  facet normal -0.000000e+000 0.000000e+000 -1.000000e+000
    outer loop
      vertex   -3.670650e-001 -1.713730e+000 0.000000e+000
      vertex   -2.291359e+000 -3.968750e+000 0.000000e+000
      vertex   -5.259283e-001 -1.671827e+000 0.000000e+000
    endloop
  endfacet
  facet normal 0.000000e+000 -0.000000e+000 -1.000000e+000
    outer loop
      vertex   -3.670650e-001 -1.713730e+000 0.000000e+000
      vertex   -2.049759e-001 -1.740572e+000 0.000000e+000
      vertex   -2.291359e+000 -3.968750e+000 0.000000e+000
    endloop
  endfacet
  facet normal 0.000000e+000 0.000000e+000 -1.000000e+000
    outer loop
      vertex   -2.291359e+000 -3.968750e+000 0.000000e+000
      vertex   -2.049759e-001 -1.740572e+000 0.000000e+000
      vertex   -4.108545e-002 -1.752118e+000 0.000000e+000
    endloop
  endfacet
  facet normal 0.000000e+000 0.000000e+000 -1.000000e+000
    outer loop
      vertex   2.291359e+000 -3.968750e+000 0.000000e+000
      vertex   -4.108545e-002 -1.752118e+000 0.000000e+000
      vertex   1.231660e-001 -1.748267e+000 0.000000e+000
    endloop
  endfacet
  facet normal -0.000000e+000 -0.000000e+000 -1.000000e+000
    outer loop
      vertex   2.863352e-001 -1.729051e+000 0.000000e+000
      vertex   2.291359e+000 -3.968750e+000 0.000000e+000
      vertex   1.231660e-001 -1.748267e+000 0.000000e+000
    endloop
  endfacet
  facet normal 0.000000e+000 0.000000e+000 -1.000000e+000
    outer loop
      vertex   2.863352e-001 -1.729051e+000 0.000000e+000
      vertex   4.469880e-001 -1.694641e+000 0.000000e+000
      vertex   2.291359e+000 -3.968750e+000 0.000000e+000
    endloop
  endfacet
  facet normal 0.000000e+000 0.000000e+000 -1.000000e+000
    outer loop
      vertex   2.291359e+000 -3.968750e+000 0.000000e+000
      vertex   4.469880e-001 -1.694641e+000 0.000000e+000
      vertex   6.037126e-001 -1.645338e+000 0.000000e+000
    endloop
  endfacet
  facet normal -0.000000e+000 -0.000000e+000 -1.000000e+000
    outer loop
      vertex   7.551318e-001 -1.581576e+000 0.000000e+000
      vertex   2.291359e+000 -3.968750e+000 0.000000e+000
      vertex   6.037126e-001 -1.645338e+000 0.000000e+000
    endloop
  endfacet
  facet normal 0.000000e+000 0.000000e+000 -1.000000e+000
    outer loop
      vertex   7.551318e-001 -1.581576e+000 0.000000e+000
      vertex   8.999149e-001 -1.503915e+000 0.000000e+000
      vertex   2.291359e+000 -3.968750e+000 0.000000e+000
    endloop
  endfacet
  facet normal 0.000000e+000 0.000000e+000 -1.000000e+000
    outer loop
      vertex   2.291359e+000 -3.968750e+000 0.000000e+000
      vertex   8.999149e-001 -1.503915e+000 0.000000e+000
      vertex   1.036789e+000 -1.413037e+000 0.000000e+000
    endloop
  endfacet
  facet normal -0.000000e+000 -0.000000e+000 -1.000000e+000
    outer loop
      vertex   1.164553e+000 -1.309742e+000 0.000000e+000
      vertex   2.291359e+000 -3.968750e+000 0.000000e+000
      vertex   1.036789e+000 -1.413037e+000 0.000000e+000
    endloop
  endfacet
  facet normal 0.000000e+000 0.000000e+000 -1.000000e+000
    outer loop
      vertex   1.164553e+000 -1.309742e+000 0.000000e+000
      vertex   1.282082e+000 -1.194936e+000 0.000000e+000
      vertex   2.291359e+000 -3.968750e+000 0.000000e+000
    endloop
  endfacet
  facet normal 0.000000e+000 0.000000e+000 -1.000000e+000
    outer loop
      vertex   2.291359e+000 -3.968750e+000 0.000000e+000
      vertex   1.282082e+000 -1.194936e+000 0.000000e+000
      vertex   1.388344e+000 -1.069630e+000 0.000000e+000
    endloop
  endfacet
  facet normal -0.000000e+000 -0.000000e+000 -1.000000e+000
    outer loop
      vertex   1.482405e+000 -9.349232e-001 0.000000e+000
      vertex   2.291359e+000 -3.968750e+000 0.000000e+000
      vertex   1.388344e+000 -1.069630e+000 0.000000e+000
    endloop
  endfacet
  facet normal 0.000000e+000 -0.000000e+000 -1.000000e+000
    outer loop
      vertex   1.482405e+000 -9.349232e-001 0.000000e+000
      vertex   4.582718e+000 3.709603e-015 0.000000e+000
      vertex   2.291359e+000 -3.968750e+000 0.000000e+000
    endloop
  endfacet
  facet normal 0.000000e+000 0.000000e+000 -1.000000e+000
    outer loop
      vertex   1.482405e+000 -9.349232e-001 0.000000e+000
      vertex   1.563439e+000 -7.920005e-001 0.000000e+000
      vertex   4.582718e+000 3.709603e-015 0.000000e+000
    endloop
  endfacet
  facet normal -0.000000e+000 0.000000e+000 -1.000000e+000
    outer loop
      vertex   4.582718e+000 3.709603e-015 0.000000e+000
      vertex   1.563439e+000 -7.920005e-001 0.000000e+000
      vertex   1.630733e+000 -6.421177e-001 0.000000e+000
    endloop
  endfacet
  facet normal 0.000000e+000 -0.000000e+000 -1.000000e+000
    outer loop
      vertex   1.683697e+000 -4.865919e-001 0.000000e+000
      vertex   4.582718e+000 3.709603e-015 0.000000e+000
      vertex   1.630733e+000 -6.421177e-001 0.000000e+000
    endloop
  endfacet
  facet normal -0.000000e+000 0.000000e+000 -1.000000e+000
    outer loop
      vertex   2.291359e+000 3.968750e+000 0.000000e+000
      vertex   -4.108545e-002 1.752118e+000 0.000000e+000
      vertex   -2.291359e+000 3.968750e+000 0.000000e+000
    endloop
  endfacet
  facet normal 0.000000e+000 -0.000000e+000 -1.000000e+000
    outer loop
      vertex   -2.291359e+000 3.968750e+000 0.000000e+000
      vertex   -1.436954e+000 1.003379e+000 0.000000e+000
      vertex   -4.582718e+000 1.289389e-015 0.000000e+000
    endloop
  endfacet
  facet normal 0.000000e+000 -0.000000e+000 -1.000000e+000
    outer loop
      vertex   -4.582718e+000 1.289389e-015 0.000000e+000
      vertex   -1.436954e+000 -1.003379e+000 0.000000e+000
      vertex   -2.291359e+000 -3.968750e+000 0.000000e+000
    endloop
  endfacet
  facet normal 0.000000e+000 0.000000e+000 -1.000000e+000
    outer loop
      vertex   -2.291359e+000 -3.968750e+000 0.000000e+000
      vertex   -4.108545e-002 -1.752118e+000 0.000000e+000
      vertex   2.291359e+000 -3.968750e+000 0.000000e+000
    endloop
  endfacet
endsolid
